# xmcd CD database file
#
# Track frame offsets:
#	150
#	22983
#	50300
#	82260
#	120940
#	136230
#	170723
#	197025
#	219635
#
# Disc length: 3088 seconds
#
# Revision: 2
# Processed by: cddbd v1.5.2PL0 Copyright (c) Steve Scherf et al.
# Submitted via: CDex 1.51
#
DISCID=790c0e09
DTITLE=Edward Simon, Anthony Jackson, Horacio "El Negro" Hernandez - Beauty Within
DYEAR=1993
DGENRE=Contemporary Jazz
TTITLE0=Mastery of All Situations
TTITLE1=Beauty Within
TTITLE2=Rare Days
TTITLE3=In Search Of Power
TTITLE4=Reprise 1
TTITLE5=El Dia En Que Me Quieras
TTITLE6=Homecomming
TTITLE7=The Calling
TTITLE8=Reprise 2
EXTD=YEAR: 1993
EXTT0=
EXTT1=
EXTT2=
EXTT3=
EXTT4=
EXTT5=
EXTT6=
EXTT7=
EXTT8=
PLAYORDER=
